HIERARCHY
ROOT Hips
{
	OFFSET -0.0000 0.0000 0.0000
	CHANNELS 6 Xposition Yposition Zposition Zrotation Xrotation Yrotation
	JOINT LeftUpperLeg
	{
		OFFSET -5.2299 -9.3936 -2.7607
		CHANNELS 3 Zrotation Xrotation Yrotation
		JOINT LeftLowerLeg
		{
			OFFSET -5.8867 -41.6441 -0.6557
			CHANNELS 3 Zrotation Xrotation Yrotation
			JOINT LeftFoot
			{
				OFFSET 4.1738 -43.7584 -2.9512
				CHANNELS 3 Zrotation Xrotation Yrotation
				JOINT LeftToe
				{
					OFFSET -4.9294 -6.5279 12.6259
					CHANNELS 3 Zrotation Xrotation Yrotation
					End Site
					{
						OFFSET 0.0000 5.0000 0.0000
					}
				}
			}
		}
	}
	JOINT RightUpperLeg
	{
		OFFSET 5.7193 -10.6548 -2.2218
		CHANNELS 3 Zrotation Xrotation Yrotation
		JOINT RightLowerLeg
		{
			OFFSET 4.8074 -39.7560 -1.4061
			CHANNELS 3 Zrotation Xrotation Yrotation
			JOINT RightFoot
			{
				OFFSET -1.4489 -44.6852 -1.8030
				CHANNELS 3 Zrotation Xrotation Yrotation
				JOINT RightToe
				{
					OFFSET 4.0575 -6.5287 12.7076
					CHANNELS 3 Zrotation Xrotation Yrotation
					End Site
					{
						OFFSET 0.0000 5.0000 0.0000
					}
				}
			}
		}
	}
	JOINT Spine
	{
		OFFSET -0.0000 11.2930 0.0000
		CHANNELS 3 Zrotation Xrotation Yrotation
		JOINT Spine1
		{
			OFFSET -0.0000 14.5636 0.0000
			CHANNELS 3 Zrotation Xrotation Yrotation
			JOINT Spine2
			{
				OFFSET -0.0000 5.6082 0.0000
				CHANNELS 3 Zrotation Xrotation Yrotation
				JOINT Neck
				{
					OFFSET -0.0000 17.1365 0.0000
					CHANNELS 3 Zrotation Xrotation Yrotation
					JOINT Head
					{
						OFFSET -2.4654 17.5391 2.4463
						CHANNELS 3 Zrotation Xrotation Yrotation
						End Site
						{
							OFFSET 0.0000 5.0000 0.0000
						}
					}
				}
				JOINT LeftShoulder
				{
					OFFSET -4.7725 8.7643 -0.8375
					CHANNELS 3 Zrotation Xrotation Yrotation
					JOINT LeftUpperArm
					{
						OFFSET -12.6285 5.7680 -1.3885
						CHANNELS 3 Zrotation Xrotation Yrotation
						JOINT LeftLowerArm
						{
							OFFSET -27.2907 -6.9853 -3.9094
							CHANNELS 3 Zrotation Xrotation Yrotation
							JOINT LeftHand
							{
								OFFSET -27.6174 2.1254 -0.2478
								CHANNELS 3 Zrotation Xrotation Yrotation
								End Site
								{
									OFFSET 0.0000 5.0000 0.0000
								}
							}
						}
					}
				}
				JOINT RightShoulder
				{
					OFFSET 4.6636 8.6612 -1.4864
					CHANNELS 3 Zrotation Xrotation Yrotation
					JOINT RightUpperArm
					{
						OFFSET 10.9342 5.3674 -0.9118
						CHANNELS 3 Zrotation Xrotation Yrotation
						JOINT RightLowerArm
						{
							OFFSET 29.2029 -3.5440 -2.4565
							CHANNELS 3 Zrotation Xrotation Yrotation
							JOINT RightHand
							{
								OFFSET 27.1879 -0.4835 -1.6445
								CHANNELS 3 Zrotation Xrotation Yrotation
								End Site
								{
									OFFSET 0.0000 5.0000 0.0000
								}
							}
						}
					}
				}
			}
		}
	}
}
MOTION
Frames: 17
Frame Time: 0.033333
3.091975 99.326302 -2.879253 -7.648326 -4.500176 3.494152 10.474695 16.678414 6.037180 3.298381 1.584202 -2.124776 -6.900946 -6.810117 1.523667 10.971294 -0.323162 0.548120 10.998006 -29.006074 3.065711 -1.493665 3.277402 -1.913382 -18.826474 9.186434 10.988333 1.462648 -7.748870 -6.750313 20.316658 17.692902 0.102959 -13.368540 -4.682576 6.502631 5.168195 7.693705 -4.529659 -3.090491 -14.557362 -2.873852 -1.149536 1.136472 0.570511 -2.230586 1.306395 7.944921 61.199982 6.226043 18.681260 7.375217 -2.485858 23.103598 6.105053 -0.786589 4.097663 -2.155802 -1.396447 -1.656323 -64.387329 31.250623 -13.858476 -3.510734 -0.571213 -26.555173 -6.684043 -17.222790 -2.857577
3.888584 98.521301 0.649342 -7.708897 -4.269377 2.654790 9.890317 19.317747 5.858156 3.053608 1.014313 -1.819484 -6.629478 -7.987990 1.953169 11.264165 -0.573180 0.835878 10.582158 -30.010685 2.652246 -1.847439 5.592333 -1.841857 -17.397599 8.135879 10.110489 1.586344 -7.689763 -6.661168 20.254755 18.011377 -0.311889 -13.744115 -4.916680 6.595377 5.650674 7.490702 -4.707364 -3.716280 -15.172648 -2.853850 -1.069734 0.945716 1.011156 -2.063914 1.605066 7.711948 60.939337 6.807573 19.523638 6.839050 -2.269959 22.229660 6.648196 0.398722 4.495376 -3.008260 -1.353599 -1.862435 -64.003749 31.973794 -14.258690 -3.309736 -0.524143 -25.094880 -6.460289 -17.936283 -2.830986
4.856150 97.852081 4.456409 -6.705936 -3.556012 1.800844 7.993585 21.364479 5.471575 2.567645 1.085009 -1.512807 -5.154344 -8.672341 3.151742 10.784534 -1.823257 1.376244 8.817293 -31.031894 1.163322 -2.226062 9.132252 -1.694478 -15.308739 11.269545 9.336846 2.741716 -7.987275 -6.417133 18.314489 17.667315 -0.251830 -13.193132 -4.878431 6.444726 5.766978 7.387594 -4.632066 -4.265413 -16.402326 -2.567945 -0.582091 0.932910 1.488615 -0.638430 1.881160 7.661801 59.993300 7.024107 19.820214 6.261483 -1.920939 21.434122 7.194340 1.194549 4.971315 -4.873250 -1.476027 -2.021393 -62.713335 32.361706 -14.565497 -2.757725 -0.091186 -23.022978 -6.231425 -17.784238 -1.676801
5.940033 97.632637 8.632761 -4.642823 -2.287548 0.970233 5.034338 23.092528 5.057797 1.483609 1.057895 -1.005317 -2.120078 -6.574845 4.465470 9.848719 -4.624108 2.320364 5.683299 -32.234691 -1.175638 -2.299662 11.684711 -1.372139 -13.740994 17.723004 9.873284 4.150680 -8.117569 -5.590716 14.647562 16.488619 0.370239 -11.802797 -4.757119 6.215744 5.360894 7.445165 -4.612291 -4.314216 -17.860498 -2.078770 0.036698 0.923128 1.700306 1.436554 1.815425 7.874810 58.928047 7.214268 19.105122 5.864711 -1.569839 20.896045 7.189328 1.874007 5.120386 -6.905727 -1.886668 -2.311271 -61.361120 32.463641 -14.322950 -2.293082 0.517898 -20.644816 -6.423008 -17.745942 -0.041441
6.944296 97.652855 12.886064 -2.658159 -1.150120 0.395480 2.545712 24.484223 4.955119 0.133087 1.611179 -0.387208 1.062283 -1.674479 4.699043 9.201277 -9.206848 3.816527 2.797052 -32.929832 -2.973456 -2.408321 14.173460 -0.920823 -13.058827 21.719823 10.364781 5.192344 -7.618773 -4.697533 11.103677 15.190663 1.045836 -10.389597 -5.021962 5.877462 4.699984 7.722827 -4.565149 -3.953611 -18.924120 -1.799005 0.584239 0.806357 1.822361 2.295861 1.606730 7.725193 59.387673 7.889869 17.820545 5.910877 -1.422831 20.464192 7.189306 2.368549 4.991095 -7.288163 -2.386479 -2.486348 -60.826099 33.490081 -14.252341 -2.300705 0.750106 -18.746835 -6.765086 -17.366479 1.471874
7.843472 98.010345 17.163961 -1.037087 -0.313541 0.298247 0.488156 23.213882 5.356690 -0.301519 6.259486 0.091556 3.311767 5.346597 3.128895 9.508208 -15.953490 6.149450 0.386952 -32.918198 -3.987916 -2.708963 16.721128 -0.326674 -12.050374 22.275490 9.960819 5.874248 -6.385595 -3.976048 8.033905 14.070025 1.679156 -8.835619 -5.666853 5.331997 3.814985 8.264752 -4.555620 -3.396072 -19.741205 -1.633547 0.751590 1.030957 1.811189 2.234238 1.076845 7.394678 61.041839 8.866701 15.973236 6.122648 -1.359709 19.917367 7.459791 2.345353 4.248240 -6.324020 -2.971921 -2.529405 -61.020484 35.044721 -14.377398 -2.615246 1.017589 -17.826227 -7.068818 -16.550079 2.529306
8.671359 98.519501 21.351545 0.364151 0.335467 0.627665 -1.274800 19.404870 5.431918 -0.067020 14.259276 0.593102 5.262123 15.246943 0.892868 10.131371 -22.953205 8.708962 -1.720640 -32.267674 -4.530903 -3.220649 19.080006 0.379807 -10.415283 19.890305 8.327430 6.266818 -4.923312 -3.645499 5.012904 12.985398 2.313538 -6.912939 -6.208107 4.180579 2.743604 8.830407 -4.044569 -2.982183 -20.212271 -2.061871 0.704693 1.347435 1.838259 1.979863 0.414439 6.906833 63.045248 9.708511 13.804061 6.178820 -1.249625 19.300233 7.453639 1.070325 3.414959 -4.857894 -3.401580 -2.708102 -61.150962 36.367653 -14.932082 -3.060386 1.131508 -17.858879 -7.068288 -15.663027 3.422258
9.321815 99.108994 25.340084 1.524362 0.853427 1.140591 -2.723637 13.127723 5.462693 0.498783 25.137695 0.579813 8.628556 25.967072 -2.565291 8.867573 -21.696756 8.462430 -3.472098 -30.919889 -4.668646 -3.721863 20.777088 1.060243 -8.160194 15.477189 6.175938 6.010465 -4.326810 -3.599684 1.956428 12.112835 2.966982 -4.441534 -6.821636 2.664892 1.577833 9.661939 -3.435728 -2.613057 -20.758677 -2.344581 0.453883 1.291261 1.397379 2.099400 -0.198769 6.721745 64.382565 10.199726 11.993456 6.145101 -1.113010 18.546651 7.462150 -0.033118 2.311235 -3.689771 -3.760306 -2.876461 -60.579878 37.320686 -16.066720 -3.188943 1.338957 -18.581345 -7.016574 -14.866001 3.626202
9.826236 99.608688 28.973848 2.660322 1.353181 1.805606 -3.837544 5.224012 5.622467 0.779616 37.040825 0.193784 14.226670 34.626182 -6.941227 5.085047 -9.577233 3.265109 -5.088030 -29.137746 -4.569299 -3.992142 21.287259 1.720915 -6.588520 11.950725 4.066177 5.455942 -3.963867 -3.572348 -1.253905 11.385532 3.168477 -1.677563 -7.338275 1.452009 0.643743 10.632023 -2.971370 -2.669848 -21.361723 -2.666144 0.473375 0.881966 1.166088 2.079308 -0.802616 6.661877 65.307161 10.425410 10.817368 6.168929 -0.818375 18.026998 7.598984 -1.365887 1.625427 -3.009127 -4.094206 -3.206988 -59.043618 37.942379 -17.908234 -3.124544 1.587907 -19.841048 -6.707283 -14.526049 3.533620
10.287968 100.107399 32.339611 3.822388 1.644791 2.904963 -4.922350 -2.840103 5.023208 1.548299 48.049458 0.456362 15.026495 33.892192 -7.837481 4.348779 -5.796830 1.709102 -6.956869 -26.768616 -5.135816 -4.031175 20.911902 2.310827 -5.506237 9.287972 2.488316 4.606790 -3.481726 -3.447335 -4.289852 10.979179 2.605992 1.063575 -7.448635 0.386227 -0.166487 11.154804 -2.399813 -2.944994 -21.445549 -3.146545 0.681289 -0.116892 1.456560 2.000716 -1.113911 6.454724 65.817700 10.726765 10.319083 6.237077 -0.419599 17.845872 7.679181 -2.668088 1.665620 -2.799663 -4.275990 -3.427293 -56.534047 38.402095 -20.627149 -2.930954 1.802065 -21.082188 -5.962683 -14.614977 3.310005
10.812817 100.718033 35.611675 4.811715 1.503496 4.318664 -6.279262 -10.301316 3.378056 2.657994 55.486812 0.569679 13.048837 30.213107 -7.769076 4.170854 -6.350986 2.148318 -8.711405 -23.242824 -6.184905 -3.862502 19.313934 2.832423 -4.498866 7.422074 1.315016 3.606955 -3.050418 -3.353373 -6.791023 11.045125 1.504635 3.645318 -7.074619 -0.445726 -0.888263 11.159664 -1.919418 -3.190462 -21.068454 -3.534103 0.809221 -0.573318 2.001964 1.945896 -1.218745 6.287489 65.908535 11.248151 10.087710 6.304319 -0.129857 18.165475 7.469582 -3.361817 2.179941 -2.784374 -4.208675 -3.498258 -53.780803 38.490862 -23.994351 -2.707593 1.825139 -21.719425 -5.112718 -14.155513 3.223117
11.425058 101.314056 38.991718 5.659656 1.003702 5.913925 -8.116267 -16.664060 0.624526 3.222447 58.468364 0.709860 11.173489 27.808777 -7.985556 3.886095 -6.984629 2.575709 -10.194516 -18.769021 -7.352830 -3.554831 16.940088 3.303535 -3.387380 5.776730 0.188756 2.422842 -2.716206 -3.278616 -8.803305 11.501237 0.119970 5.941841 -6.364708 -1.169421 -1.458879 10.713854 -1.452002 -3.336367 -20.336339 -3.968632 0.819632 -0.593834 2.711177 1.823824 -1.160884 6.091842 65.838419 11.827455 9.750047 6.367766 0.040485 19.089540 7.101588 -3.448477 2.717256 -2.475609 -4.117309 -3.662629 -51.847932 38.152264 -27.057446 -2.554842 1.668608 -22.137687 -4.526547 -13.073751 3.012723
12.066553 101.773621 42.481529 6.508265 0.337118 7.620862 -10.563037 -21.753936 -3.012457 2.900686 57.700107 1.244010 9.976480 26.092645 -7.890482 3.434354 -7.653585 2.950813 -11.467469 -13.804751 -8.508202 -3.158182 14.224424 3.682070 -2.128052 4.192447 -0.930284 1.055012 -2.480659 -3.177785 -10.627507 12.226476 -1.286258 8.065349 -5.471173 -1.936222 -1.910946 9.921831 -0.939988 -3.399514 -19.478941 -4.409500 0.765387 -0.540733 3.468638 1.747600 -0.936476 5.842230 65.570617 12.309348 9.278475 6.471313 0.155897 20.458843 6.702887 -3.197176 3.072232 -1.949070 -4.056075 -3.925731 -50.792358 37.465924 -29.402432 -2.447314 1.446235 -22.910840 -4.061197 -11.998922 2.532229
12.668450 102.071693 45.916260 7.329759 -0.395148 9.361006 -13.190417 -25.365252 -6.795286 2.088198 53.811831 1.889392 9.517964 24.280025 -7.468730 2.775186 -8.344342 3.314243 -12.435708 -8.752309 -9.539794 -2.741063 11.444398 3.957151 -0.843505 2.812167 -2.030254 -0.420468 -2.324864 -3.058226 -12.295095 13.179163 -2.472094 9.990807 -4.546214 -2.736589 -2.228428 8.937195 -0.419141 -3.355527 -18.631647 -4.883564 0.686411 -0.616283 4.034477 1.859123 -0.616330 5.556238 65.074438 12.641406 8.730238 6.605286 0.233717 21.866792 6.343328 -2.697758 3.263354 -1.449387 -3.962619 -4.212252 -50.083088 36.807975 -31.318240 -2.293913 1.140972 -24.130335 -3.592380 -11.500258 1.785458
13.176544 102.194855 49.204082 8.017277 -1.066162 11.070837 -15.305317 -27.519382 -9.958736 1.127729 47.123526 2.259461 9.887368 22.806808 -6.989316 1.804444 -9.053613 3.640513 -12.956458 -4.077329 -10.334111 -2.435432 8.995641 4.150158 0.340924 1.503950 -3.170951 -1.811188 -2.205879 -2.927516 -13.718421 14.229102 -3.332259 11.691927 -3.841693 -3.433235 -2.472518 8.066917 0.051008 -3.154744 -17.862703 -5.366461 0.587108 -0.835562 4.377122 2.267814 -0.322078 5.219243 64.442664 12.910897 8.158977 6.694234 0.279446 22.937293 6.059688 -2.068302 3.549363 -1.054531 -3.900315 -4.469487 -49.397351 36.435283 -33.070504 -2.030011 0.810979 -25.677726 -3.284985 -11.624277 0.915839
13.586757 102.155411 52.455448 8.590342 -1.601786 12.750297 -16.650539 -28.224981 -12.263175 0.158349 37.585946 2.188972 11.311928 22.882175 -6.799901 0.329146 -9.798506 3.988609 -13.088706 0.133312 -11.060615 -2.304076 7.015398 4.240777 1.508757 0.113084 -4.296857 -3.086062 -2.078382 -2.808409 -14.998937 15.236874 -3.899773 13.284740 -3.424357 -3.979732 -2.758243 7.427169 0.467656 -2.762494 -17.169392 -5.751468 0.453188 -1.176894 4.409764 2.875947 -0.097381 4.815226 63.861000 13.147270 7.637001 6.743312 0.301090 23.428860 5.866739 -1.558795 3.873372 -0.640200 -3.883027 -4.629384 -48.757806 36.553035 -34.742840 -1.639819 0.418571 -27.417935 -2.992338 -11.939094 -0.040710
13.935081 101.953629 55.880112 9.213782 -2.001177 14.468365 -17.272774 -27.381936 -13.591631 -0.730779 25.685970 1.774303 13.817446 23.877860 -7.091986 -1.474918 -10.394875 4.485361 -13.073536 4.168972 -11.954095 -2.312496 5.452965 4.193011 2.779589 -1.467413 -5.224144 -4.383235 -1.845708 -2.613814 -16.406369 16.121000 -4.264333 14.934389 -3.248633 -4.422981 -3.177670 7.047504 0.854690 -2.176071 -16.526075 -6.065429 0.265718 -1.583359 4.152931 3.466991 0.064487 4.380736 63.574391 13.306520 7.131265 6.815650 0.264329 23.354571 5.882227 -1.065440 3.962933 -0.026957 -3.920672 -4.651125 -48.385398 37.135166 -36.221163 -1.290062 -0.072725 -29.231078 -2.547041 -12.054709 -0.898039
